<mxfile host="app.diagrams.net" modified="2022-08-26T15:40:42.286Z" agent="5.0 (Windows NT 10.0; Win64; x64) AppleWebKit/537.36 (KHTML, like Gecko) Chrome/104.0.0.0 Safari/537.36" etag="au_8Iq839rCga4BRSIwA" version="20.2.7" type="github">
  <diagram id="_WsQ5wQm4EMBaogvPd_R" name="PÃ¡gina-1">
    <mxGraphModel dx="1422" dy="794" grid="1" gridSize="10" guides="1" tooltips="1" connect="1" arrows="1" fold="1" page="1" pageScale="1" pageWidth="827" pageHeight="1169" math="0" shadow="0">
      <root>
        <mxCell id="0" />
        <mxCell id="1" parent="0" />
        <mxCell id="vz2UjPPbCoGxtFHM17oA-3" value="" style="edgeStyle=orthogonalEdgeStyle;rounded=0;orthogonalLoop=1;jettySize=auto;html=1;" parent="1" source="vz2UjPPbCoGxtFHM17oA-1" target="vz2UjPPbCoGxtFHM17oA-2" edge="1">
          <mxGeometry relative="1" as="geometry" />
        </mxCell>
        <mxCell id="vz2UjPPbCoGxtFHM17oA-1" value="inicio" style="ellipse;whiteSpace=wrap;html=1;fillColor=#dae8fc;strokeColor=#6c8ebf;" parent="1" vertex="1">
          <mxGeometry x="75" y="20" width="120" height="80" as="geometry" />
        </mxCell>
        <mxCell id="vz2UjPPbCoGxtFHM17oA-5" value="" style="edgeStyle=orthogonalEdgeStyle;rounded=0;orthogonalLoop=1;jettySize=auto;html=1;" parent="1" source="vz2UjPPbCoGxtFHM17oA-2" target="vz2UjPPbCoGxtFHM17oA-4" edge="1">
          <mxGeometry relative="1" as="geometry" />
        </mxCell>
        <mxCell id="vz2UjPPbCoGxtFHM17oA-2" value="numSecr(1,10),numIng" style="whiteSpace=wrap;html=1;fillColor=#f8cecc;strokeColor=#b85450;" parent="1" vertex="1">
          <mxGeometry x="52.5" y="140" width="165" height="60" as="geometry" />
        </mxCell>
        <mxCell id="vz2UjPPbCoGxtFHM17oA-7" value="" style="edgeStyle=orthogonalEdgeStyle;rounded=0;orthogonalLoop=1;jettySize=auto;html=1;" parent="1" source="vz2UjPPbCoGxtFHM17oA-4" target="vz2UjPPbCoGxtFHM17oA-6" edge="1">
          <mxGeometry relative="1" as="geometry" />
        </mxCell>
        <mxCell id="vz2UjPPbCoGxtFHM17oA-4" value="numSecr" style="shape=parallelogram;perimeter=parallelogramPerimeter;whiteSpace=wrap;html=1;fixedSize=1;fillColor=#fad7ac;strokeColor=#b46504;" parent="1" vertex="1">
          <mxGeometry x="75" y="230" width="120" height="60" as="geometry" />
        </mxCell>
        <mxCell id="vz2UjPPbCoGxtFHM17oA-9" value="" style="edgeStyle=orthogonalEdgeStyle;rounded=0;orthogonalLoop=1;jettySize=auto;html=1;" parent="1" source="vz2UjPPbCoGxtFHM17oA-6" target="vz2UjPPbCoGxtFHM17oA-8" edge="1">
          <mxGeometry relative="1" as="geometry" />
        </mxCell>
        <mxCell id="vz2UjPPbCoGxtFHM17oA-6" value="&quot;Bienvenido a numero Secreto&quot;" style="shape=document;whiteSpace=wrap;html=1;boundedLbl=1;fillColor=#bac8d3;strokeColor=#23445d;" parent="1" vertex="1">
          <mxGeometry x="50" y="330" width="170" height="80" as="geometry" />
        </mxCell>
        <mxCell id="vz2UjPPbCoGxtFHM17oA-11" value="" style="edgeStyle=orthogonalEdgeStyle;rounded=0;orthogonalLoop=1;jettySize=auto;html=1;" parent="1" source="vz2UjPPbCoGxtFHM17oA-8" target="vz2UjPPbCoGxtFHM17oA-10" edge="1">
          <mxGeometry relative="1" as="geometry" />
        </mxCell>
        <mxCell id="vz2UjPPbCoGxtFHM17oA-8" value="&quot;Ingresa un numero del 1 al 10&quot;" style="shape=document;whiteSpace=wrap;html=1;boundedLbl=1;fillColor=#bac8d3;strokeColor=#23445d;" parent="1" vertex="1">
          <mxGeometry x="40" y="450" width="190" height="80" as="geometry" />
        </mxCell>
        <mxCell id="vz2UjPPbCoGxtFHM17oA-15" value="" style="edgeStyle=orthogonalEdgeStyle;rounded=0;orthogonalLoop=1;jettySize=auto;html=1;" parent="1" target="vz2UjPPbCoGxtFHM17oA-14" edge="1">
          <mxGeometry relative="1" as="geometry">
            <mxPoint x="530" y="90" as="sourcePoint" />
          </mxGeometry>
        </mxCell>
        <mxCell id="vz2UjPPbCoGxtFHM17oA-17" value="" style="edgeStyle=orthogonalEdgeStyle;rounded=0;orthogonalLoop=1;jettySize=auto;html=1;" parent="1" source="vz2UjPPbCoGxtFHM17oA-10" target="vz2UjPPbCoGxtFHM17oA-16" edge="1">
          <mxGeometry relative="1" as="geometry" />
        </mxCell>
        <mxCell id="vz2UjPPbCoGxtFHM17oA-10" value="numIng" style="shape=parallelogram;perimeter=parallelogramPerimeter;whiteSpace=wrap;html=1;fixedSize=1;fillColor=#ffe6cc;strokeColor=#d79b00;" parent="1" vertex="1">
          <mxGeometry x="75" y="565" width="120" height="60" as="geometry" />
        </mxCell>
        <mxCell id="vz2UjPPbCoGxtFHM17oA-20" value="NO" style="edgeStyle=orthogonalEdgeStyle;rounded=0;orthogonalLoop=1;jettySize=auto;html=1;" parent="1" source="vz2UjPPbCoGxtFHM17oA-14" target="vz2UjPPbCoGxtFHM17oA-23" edge="1">
          <mxGeometry relative="1" as="geometry">
            <mxPoint x="670" y="172.5" as="targetPoint" />
          </mxGeometry>
        </mxCell>
        <mxCell id="vz2UjPPbCoGxtFHM17oA-22" value="SI" style="edgeStyle=orthogonalEdgeStyle;rounded=0;orthogonalLoop=1;jettySize=auto;html=1;" parent="1" source="vz2UjPPbCoGxtFHM17oA-14" target="vz2UjPPbCoGxtFHM17oA-21" edge="1">
          <mxGeometry relative="1" as="geometry" />
        </mxCell>
        <mxCell id="vz2UjPPbCoGxtFHM17oA-14" value="numSecr==numIng" style="rhombus;whiteSpace=wrap;html=1;fillColor=#ffff88;strokeColor=#36393d;" parent="1" vertex="1">
          <mxGeometry x="450" y="125" width="160" height="95" as="geometry" />
        </mxCell>
        <mxCell id="vz2UjPPbCoGxtFHM17oA-16" value="1" style="ellipse;whiteSpace=wrap;html=1;aspect=fixed;fillColor=#d5e8d4;gradientColor=#97d077;strokeColor=#82b366;" parent="1" vertex="1">
          <mxGeometry x="95" y="660" width="80" height="80" as="geometry" />
        </mxCell>
        <mxCell id="vz2UjPPbCoGxtFHM17oA-18" value="1" style="ellipse;whiteSpace=wrap;html=1;aspect=fixed;fillColor=#d5e8d4;gradientColor=#97d077;strokeColor=#82b366;" parent="1" vertex="1">
          <mxGeometry x="490" y="10" width="80" height="80" as="geometry" />
        </mxCell>
        <mxCell id="vz2UjPPbCoGxtFHM17oA-31" value="" style="edgeStyle=orthogonalEdgeStyle;rounded=0;orthogonalLoop=1;jettySize=auto;html=1;" parent="1" source="vz2UjPPbCoGxtFHM17oA-21" target="vz2UjPPbCoGxtFHM17oA-30" edge="1">
          <mxGeometry relative="1" as="geometry" />
        </mxCell>
        <mxCell id="vz2UjPPbCoGxtFHM17oA-21" value="&quot;Felicidades&quot;" style="shape=document;whiteSpace=wrap;html=1;boundedLbl=1;fillColor=#b1ddf0;strokeColor=#10739e;" parent="1" vertex="1">
          <mxGeometry x="680" y="132.5" width="120" height="80" as="geometry" />
        </mxCell>
        <mxCell id="vz2UjPPbCoGxtFHM17oA-25" value="SI" style="edgeStyle=orthogonalEdgeStyle;rounded=0;orthogonalLoop=1;jettySize=auto;html=1;" parent="1" source="vz2UjPPbCoGxtFHM17oA-23" target="vz2UjPPbCoGxtFHM17oA-24" edge="1">
          <mxGeometry relative="1" as="geometry" />
        </mxCell>
        <mxCell id="vz2UjPPbCoGxtFHM17oA-29" value="NO" style="edgeStyle=orthogonalEdgeStyle;rounded=0;orthogonalLoop=1;jettySize=auto;html=1;" parent="1" source="vz2UjPPbCoGxtFHM17oA-23" target="vz2UjPPbCoGxtFHM17oA-28" edge="1">
          <mxGeometry relative="1" as="geometry" />
        </mxCell>
        <mxCell id="vz2UjPPbCoGxtFHM17oA-23" value="numSecr&amp;lt;numIng" style="rhombus;whiteSpace=wrap;html=1;fillColor=#ffff88;strokeColor=#36393d;" parent="1" vertex="1">
          <mxGeometry x="455" y="300" width="150" height="80" as="geometry" />
        </mxCell>
        <mxCell id="vz2UjPPbCoGxtFHM17oA-24" value="&quot;el numero ingresado es MENOR al numero secreto&quot;" style="shape=document;whiteSpace=wrap;html=1;boundedLbl=1;fillColor=#b1ddf0;strokeColor=#10739e;" parent="1" vertex="1">
          <mxGeometry x="280" y="300" width="120" height="80" as="geometry" />
        </mxCell>
        <mxCell id="vz2UjPPbCoGxtFHM17oA-33" value="SI" style="edgeStyle=orthogonalEdgeStyle;rounded=0;orthogonalLoop=1;jettySize=auto;html=1;" parent="1" target="vz2UjPPbCoGxtFHM17oA-32" edge="1">
          <mxGeometry relative="1" as="geometry">
            <mxPoint x="460" y="500" as="sourcePoint" />
          </mxGeometry>
        </mxCell>
        <mxCell id="vz2UjPPbCoGxtFHM17oA-28" value="numSecr&amp;gt;numIng" style="rhombus;whiteSpace=wrap;html=1;fillColor=#ffff88;strokeColor=#36393d;" parent="1" vertex="1">
          <mxGeometry x="450" y="460" width="160" height="80" as="geometry" />
        </mxCell>
        <mxCell id="vz2UjPPbCoGxtFHM17oA-30" value="FIN" style="ellipse;whiteSpace=wrap;html=1;fillColor=#dae8fc;strokeColor=#6c8ebf;" parent="1" vertex="1">
          <mxGeometry x="680" y="600" width="120" height="60" as="geometry" />
        </mxCell>
        <mxCell id="vz2UjPPbCoGxtFHM17oA-37" style="edgeStyle=orthogonalEdgeStyle;rounded=0;orthogonalLoop=1;jettySize=auto;html=1;" parent="1" source="vz2UjPPbCoGxtFHM17oA-32" target="vz2UjPPbCoGxtFHM17oA-30" edge="1">
          <mxGeometry relative="1" as="geometry" />
        </mxCell>
        <mxCell id="vz2UjPPbCoGxtFHM17oA-32" value="&quot;el numero ingresado es MAYOR a numero secreto&quot;" style="shape=document;whiteSpace=wrap;html=1;boundedLbl=1;fillColor=#b1ddf0;strokeColor=#10739e;" parent="1" vertex="1">
          <mxGeometry x="290" y="590" width="120" height="80" as="geometry" />
        </mxCell>
      </root>
    </mxGraphModel>
  </diagram>
</mxfile>
